
<svg width="44" height="46" viewBox="0 0 44 46" fill="none" xmlns="http://www.w3.org/2000/svg">
<path d="M7.90034 45.5H1.35087C0.959018 45.5 0.679126 45.2229 0.679126 44.835V32.6983C0.679126 32.3103 0.959018 32.0333 1.35087 32.0333H7.90034C8.29219 32.0333 8.57208 32.3103 8.57208 32.6983V44.7796C8.57208 45.1675 8.23621 45.5 7.90034 45.5ZM19.7118 45.5H13.1623C12.7705 45.5 12.4906 45.2229 12.4906 44.835V28.0985C12.4906 27.7106 12.7705 27.4335 13.1623 27.4335H19.7118C20.1036 27.4335 20.3835 27.7106 20.3835 28.0985V44.7796C20.3835 45.1675 20.1036 45.5 19.7118 45.5ZM30.9634 45.5H24.358C23.9661 45.5 23.6863 45.2229 23.6863 44.835V22.9446C23.6863 22.5567 23.9661 22.2796 24.358 22.2796H30.9075C31.2993 22.2796 31.5792 22.5567 31.5792 22.9446V44.835C31.5792 45.1675 31.2993 45.5 30.9634 45.5ZM42.495 45.5H35.9455C35.5537 45.5 35.2738 45.2229 35.2738 44.835V17.6798C35.2738 17.2919 35.5537 17.0148 35.9455 17.0148H42.495C42.8869 17.0148 43.1667 17.2919 43.1667 17.6798V44.835C43.1667 45.1675 42.8869 45.5 42.495 45.5ZM40.7037 1.27586V10.5862C40.7037 11.2512 39.864 11.5837 39.4162 11.1404L37.0651 8.75739C36.8412 8.53572 36.5053 8.53572 36.3374 8.75739C24.7498 20.5616 8.18023 22.5567 0.959018 22.8892C0.679126 22.8892 0.455213 22.7229 0.399234 22.4458L0.175321 21.5037C0.119342 21.1712 0.343256 20.8941 0.679126 20.8387C1.29489 20.7833 1.85467 20.7278 2.47044 20.617C3.64598 20.4507 4.76555 20.2845 5.88512 20.0628C7.2286 19.7857 8.57208 19.5086 9.85959 19.1207C11.371 18.7328 12.8264 18.234 14.2259 17.6798C15.7933 17.1256 17.3607 16.4052 18.8161 15.6847C20.4395 14.9089 21.9509 14.0222 23.4623 13.0246C25.0297 11.9717 26.5412 10.8633 27.9406 9.58867C29.452 8.25862 30.8515 6.81774 32.139 5.32143C32.3629 5.04434 32.6428 4.76724 32.4749 4.37931C32.3629 4.10222 32.139 3.93596 31.9711 3.76971C31.8031 3.60345 31.5792 3.38177 31.4113 3.21552C31.0754 2.88301 30.7395 2.55049 30.3477 2.16256C30.2357 2.05172 30.0678 1.88547 29.9558 1.77463C29.452 1.27586 29.8439 0.5 30.5156 0.5H39.864C40.3678 0.5 40.7037 0.832513 40.7037 1.27586Z" fill="#4985E5"/>
</svg>
