      <svg width="70" height="70" viewBox="0 0 60 34" fill="none" xmlns="http://www.w3.org/2000/svg">
                        <path
                            d="M0.0400391 33.605C0.0400391 32.4424 0.98248 31.5 2.14504 31.5C3.3076 31.5 4.25004 32.4424 4.25004 33.605V34H0.0400391V33.605Z"
                            fill="#6418C3" />
                        <path
                            d="M6.22998 27.105C6.22998 25.9424 7.17242 25 8.33498 25C9.49754 25 10.44 25.9424 10.44 27.105V34H6.22998V27.105Z"
                            fill="#6418C3" />
                        <path
                            d="M12.4199 30.105C12.4199 28.9424 13.3624 28 14.5249 28C15.6875 28 16.6299 28.9424 16.6299 30.105V34H12.4199V30.105Z"
                            fill="#6418C3" />
                        <path
                            d="M18.6101 10.605C18.6101 9.44244 19.5525 8.5 20.7151 8.5C21.8777 8.5 22.8201 9.44244 22.8201 10.605V34H18.6101V10.605Z"
                            fill="#6418C3" />
                        <path
                            d="M24.8 2.105C24.8 0.942441 25.7425 0 26.905 0C28.0676 0 29.01 0.942441 29.01 2.105V34H24.8V2.105Z"
                            fill="#6418C3" />
                        <path
                            d="M30.99 30.605C30.99 29.4424 31.9324 28.5 33.095 28.5C34.2575 28.5 35.2 29.4424 35.2 30.605V34H30.99V30.605Z"
                            fill="#6418C3" />
                        <path
                            d="M37.1799 16.605C37.1799 15.4424 38.1224 14.5 39.2849 14.5C40.4475 14.5 41.3899 15.4424 41.3899 16.605V34H37.1799V16.605Z"
                            fill="#6418C3" />
                        <path
                            d="M43.3701 17.605C43.3701 16.4424 44.3126 15.5 45.4751 15.5C46.6377 15.5 47.5801 16.4424 47.5801 17.605V34H43.3701V17.605Z"
                            fill="#6418C3" />
                        <path
                            d="M49.5601 22.605C49.5601 21.4424 50.5025 20.5 51.6651 20.5C52.8276 20.5 53.7701 21.4424 53.7701 22.605V34H49.5601V22.605Z"
                            fill="#6418C3" />
                        <path
                            d="M55.75 26.105C55.75 24.9424 56.6924 24 57.855 24C59.0176 24 59.96 24.9424 59.96 26.105V34H55.75V26.105Z"
                            fill="#6418C3" />
                    </svg>
