              <svg width="70" height="70" viewBox="0 0 61 34" fill="none" xmlns="http://www.w3.org/2000/svg">
                        <path
                            d="M0.47998 33.605C0.47998 32.4424 1.42242 31.5 2.58498 31.5C3.74754 31.5 4.68998 32.4424 4.68998 33.605V34H0.47998V33.605Z"
                            fill="#DC2626" />
                        <path
                            d="M6.66992 27.105C6.66992 25.9424 7.61236 25 8.77492 25C9.93748 25 10.8799 25.9424 10.8799 27.105V34H6.66992V27.105Z"
                            fill="#DC2626" />
                        <path
                            d="M12.8599 30.105C12.8599 28.9424 13.8023 28 14.9649 28C16.1274 28 17.0699 28.9424 17.0699 30.105V34H12.8599V30.105Z"
                            fill="#DC2626" />
                        <path
                            d="M19.05 10.605C19.05 9.44244 19.9925 8.5 21.155 8.5C22.3176 8.5 23.26 9.44244 23.26 10.605V34H19.05V10.605Z"
                            fill="#DC2626" />
                        <path
                            d="M25.24 2.105C25.24 0.942441 26.1824 0 27.345 0C28.5075 0 29.45 0.942441 29.45 2.105V34H25.24V2.105Z"
                            fill="#DC2626" />
                        <path
                            d="M31.4299 30.605C31.4299 29.4424 32.3724 28.5 33.5349 28.5C34.6975 28.5 35.6399 29.4424 35.6399 30.605V34H31.4299V30.605Z"
                            fill="#DC2626" />
                        <path
                            d="M37.6199 16.605C37.6199 15.4424 38.5623 14.5 39.7249 14.5C40.8874 14.5 41.8299 15.4424 41.8299 16.605V34H37.6199V16.605Z"
                            fill="#DC2626" />
                        <path
                            d="M43.8101 17.605C43.8101 16.4424 44.7525 15.5 45.9151 15.5C47.0776 15.5 48.0201 16.4424 48.0201 17.605V34H43.8101V17.605Z"
                            fill="#DC2626" />
                        <path
                            d="M50 22.605C50 21.4424 50.9424 20.5 52.105 20.5C53.2676 20.5 54.21 21.4424 54.21 22.605V34H50V22.605Z"
                            fill="#DC2626" />
                        <path
                            d="M56.1899 26.105C56.1899 24.9424 57.1324 24 58.2949 24C59.4575 24 60.3999 24.9424 60.3999 26.105V34H56.1899V26.105Z"
                            fill="#DC2626" />
                    </svg>